<svg width="9" height="9" viewBox="0 0 9 9" fill="none" xmlns="http://www.w3.org/2000/svg">
<path fill-rule="evenodd" clip-rule="evenodd" d="M1.318 1.27806C2.13199 0.488743 3.25741 0 4.49994 0C5.74247 0 6.86786 0.488743 7.68185 1.27806C8.49585 2.06738 8.99986 3.1587 8.99986 4.36357C8.99986 5.56845 8.49585 6.65974 7.68185 7.44907C6.86786 8.2384 5.74247 8.72714 4.49994 8.72714C3.25741 8.72714 2.13199 8.2384 1.318 7.44907C0.504016 6.65974 0 5.56845 0 4.36357C0 3.1587 0.504019 2.06738 1.318 1.27806ZM4.49994 0.60887C3.43063 0.60887 2.46306 1.0288 1.76199 1.7086C1.06094 2.38842 0.627897 3.32668 0.627897 4.36357C0.627897 5.40047 1.06095 6.33873 1.76199 7.01855C2.46306 7.69834 3.43063 8.11828 4.49994 8.11828C5.56924 8.11828 6.53681 7.69834 7.23788 7.01855C7.93891 6.33873 8.37198 5.40047 8.37198 4.36357C8.37198 3.32668 7.93891 2.38839 7.23788 1.7086C6.53681 1.0288 5.56924 0.60887 4.49994 0.60887Z" fill="#BABEC3"/>
</svg>
